<mxfile host="www.draw.io" modified="2020-03-09T19:49:55.540Z" agent="Mozilla/5.0 (Windows NT 6.3; Win64; x64) AppleWebKit/537.36 (KHTML, like Gecko) Chrome/80.0.3987.132 Safari/537.36" etag="LCb2ZbD7EvDAtB3brhD3" version="12.8.1" type="github">
  <diagram id="0rrTywWAY8Zzka8cJAPI" name="Page-1">
    <mxGraphModel dx="868" dy="492" grid="1" gridSize="10" guides="1" tooltips="1" connect="1" arrows="1" fold="1" page="1" pageScale="1" pageWidth="1600" pageHeight="1200" math="0" shadow="0">
      <root>
        <mxCell id="0" />
        <mxCell id="1" parent="0" />
        <mxCell id="7twY9lvJ4eUQA6iJNznY-9" value="" style="group" parent="1" vertex="1" connectable="0">
          <mxGeometry x="40" y="120" width="80" height="40" as="geometry" />
        </mxCell>
        <mxCell id="7twY9lvJ4eUQA6iJNznY-8" value="IV" style="text;html=1;strokeColor=none;fillColor=none;align=center;verticalAlign=middle;whiteSpace=wrap;rounded=0;" parent="7twY9lvJ4eUQA6iJNznY-9" vertex="1">
          <mxGeometry width="80" height="20" as="geometry" />
        </mxCell>
        <mxCell id="7twY9lvJ4eUQA6iJNznY-1" value="" style="rounded=0;whiteSpace=wrap;html=1;" parent="7twY9lvJ4eUQA6iJNznY-9" vertex="1">
          <mxGeometry y="20" width="80" height="20" as="geometry" />
        </mxCell>
        <mxCell id="7twY9lvJ4eUQA6iJNznY-4" value="" style="endArrow=none;html=1;entryX=0.25;entryY=0;entryDx=0;entryDy=0;exitX=0.25;exitY=1;exitDx=0;exitDy=0;" parent="7twY9lvJ4eUQA6iJNznY-9" source="7twY9lvJ4eUQA6iJNznY-1" target="7twY9lvJ4eUQA6iJNznY-1" edge="1">
          <mxGeometry width="50" height="50" relative="1" as="geometry">
            <mxPoint x="20" y="40" as="sourcePoint" />
            <mxPoint x="70" y="20" as="targetPoint" />
          </mxGeometry>
        </mxCell>
        <mxCell id="7twY9lvJ4eUQA6iJNznY-5" value="" style="endArrow=none;html=1;entryX=0.5;entryY=0;entryDx=0;entryDy=0;exitX=0.5;exitY=1;exitDx=0;exitDy=0;" parent="7twY9lvJ4eUQA6iJNznY-9" source="7twY9lvJ4eUQA6iJNznY-1" target="7twY9lvJ4eUQA6iJNznY-1" edge="1">
          <mxGeometry width="50" height="50" relative="1" as="geometry">
            <mxPoint x="50" y="110" as="sourcePoint" />
            <mxPoint x="100" y="60" as="targetPoint" />
          </mxGeometry>
        </mxCell>
        <mxCell id="7twY9lvJ4eUQA6iJNznY-6" value="" style="endArrow=none;html=1;entryX=0.75;entryY=0;entryDx=0;entryDy=0;exitX=0.75;exitY=1;exitDx=0;exitDy=0;" parent="7twY9lvJ4eUQA6iJNznY-9" source="7twY9lvJ4eUQA6iJNznY-1" target="7twY9lvJ4eUQA6iJNznY-1" edge="1">
          <mxGeometry width="50" height="50" relative="1" as="geometry">
            <mxPoint x="30" y="110" as="sourcePoint" />
            <mxPoint x="100" y="60" as="targetPoint" />
          </mxGeometry>
        </mxCell>
        <mxCell id="7twY9lvJ4eUQA6iJNznY-11" value="" style="group" parent="1" vertex="1" connectable="0">
          <mxGeometry x="100" y="280" width="80" height="40" as="geometry" />
        </mxCell>
        <mxCell id="7twY9lvJ4eUQA6iJNznY-12" value="Plaintext" style="text;html=1;strokeColor=none;fillColor=none;align=center;verticalAlign=middle;whiteSpace=wrap;rounded=0;" parent="7twY9lvJ4eUQA6iJNznY-11" vertex="1">
          <mxGeometry width="80" height="20" as="geometry" />
        </mxCell>
        <mxCell id="7twY9lvJ4eUQA6iJNznY-13" value="" style="rounded=0;whiteSpace=wrap;html=1;" parent="7twY9lvJ4eUQA6iJNznY-11" vertex="1">
          <mxGeometry y="20" width="80" height="20" as="geometry" />
        </mxCell>
        <mxCell id="7twY9lvJ4eUQA6iJNznY-14" value="" style="endArrow=none;html=1;entryX=0.25;entryY=0;entryDx=0;entryDy=0;exitX=0.25;exitY=1;exitDx=0;exitDy=0;" parent="7twY9lvJ4eUQA6iJNznY-11" source="7twY9lvJ4eUQA6iJNznY-13" target="7twY9lvJ4eUQA6iJNznY-13" edge="1">
          <mxGeometry width="50" height="50" relative="1" as="geometry">
            <mxPoint x="20" y="40" as="sourcePoint" />
            <mxPoint x="70" y="20" as="targetPoint" />
          </mxGeometry>
        </mxCell>
        <mxCell id="7twY9lvJ4eUQA6iJNznY-15" value="" style="endArrow=none;html=1;entryX=0.5;entryY=0;entryDx=0;entryDy=0;exitX=0.5;exitY=1;exitDx=0;exitDy=0;" parent="7twY9lvJ4eUQA6iJNznY-11" source="7twY9lvJ4eUQA6iJNznY-13" target="7twY9lvJ4eUQA6iJNznY-13" edge="1">
          <mxGeometry width="50" height="50" relative="1" as="geometry">
            <mxPoint x="50" y="110" as="sourcePoint" />
            <mxPoint x="100" y="60" as="targetPoint" />
          </mxGeometry>
        </mxCell>
        <mxCell id="7twY9lvJ4eUQA6iJNznY-16" value="" style="endArrow=none;html=1;entryX=0.75;entryY=0;entryDx=0;entryDy=0;exitX=0.75;exitY=1;exitDx=0;exitDy=0;" parent="7twY9lvJ4eUQA6iJNznY-11" source="7twY9lvJ4eUQA6iJNznY-13" target="7twY9lvJ4eUQA6iJNznY-13" edge="1">
          <mxGeometry width="50" height="50" relative="1" as="geometry">
            <mxPoint x="30" y="110" as="sourcePoint" />
            <mxPoint x="100" y="60" as="targetPoint" />
          </mxGeometry>
        </mxCell>
        <mxCell id="7twY9lvJ4eUQA6iJNznY-32" style="edgeStyle=none;rounded=0;orthogonalLoop=1;jettySize=auto;html=1;entryX=0.5;entryY=0;entryDx=0;entryDy=0;" parent="1" source="7twY9lvJ4eUQA6iJNznY-22" target="7twY9lvJ4eUQA6iJNznY-30" edge="1">
          <mxGeometry relative="1" as="geometry" />
        </mxCell>
        <mxCell id="7twY9lvJ4eUQA6iJNznY-22" value="AES" style="rounded=0;whiteSpace=wrap;html=1;" parent="1" vertex="1">
          <mxGeometry x="180" y="220" width="120" height="40" as="geometry" />
        </mxCell>
        <mxCell id="7twY9lvJ4eUQA6iJNznY-25" value="" style="group" parent="1" vertex="1" connectable="0">
          <mxGeometry x="120" y="210" width="40" height="40" as="geometry" />
        </mxCell>
        <mxCell id="7twY9lvJ4eUQA6iJNznY-23" value="" style="pointerEvents=1;shadow=0;dashed=0;html=1;strokeColor=none;fillColor=#434445;labelPosition=center;verticalLabelPosition=bottom;verticalAlign=top;align=center;outlineConnect=0;shape=mxgraph.vvd.key;rotation=-90;" parent="7twY9lvJ4eUQA6iJNznY-25" vertex="1">
          <mxGeometry x="10" y="10" width="20" height="40" as="geometry" />
        </mxCell>
        <mxCell id="7twY9lvJ4eUQA6iJNznY-24" value="KEY1" style="text;html=1;strokeColor=none;fillColor=none;align=center;verticalAlign=middle;whiteSpace=wrap;rounded=0;" parent="7twY9lvJ4eUQA6iJNznY-25" vertex="1">
          <mxGeometry width="40" height="20" as="geometry" />
        </mxCell>
        <mxCell id="7twY9lvJ4eUQA6iJNznY-26" style="edgeStyle=none;rounded=0;orthogonalLoop=1;jettySize=auto;html=1;" parent="1" source="7twY9lvJ4eUQA6iJNznY-23" target="7twY9lvJ4eUQA6iJNznY-22" edge="1">
          <mxGeometry relative="1" as="geometry" />
        </mxCell>
        <mxCell id="7twY9lvJ4eUQA6iJNznY-29" style="edgeStyle=orthogonalEdgeStyle;rounded=0;orthogonalLoop=1;jettySize=auto;html=1;exitX=0.5;exitY=1;exitDx=0;exitDy=0;" parent="1" source="7twY9lvJ4eUQA6iJNznY-1" target="7twY9lvJ4eUQA6iJNznY-22" edge="1">
          <mxGeometry relative="1" as="geometry">
            <Array as="points">
              <mxPoint x="80" y="200" />
              <mxPoint x="240" y="200" />
            </Array>
          </mxGeometry>
        </mxCell>
        <mxCell id="OdAngG6yBn14efRdHHWv-16" style="edgeStyle=orthogonalEdgeStyle;rounded=0;orthogonalLoop=1;jettySize=auto;html=1;exitX=0.5;exitY=1;exitDx=0;exitDy=0;entryX=1;entryY=0.5;entryDx=0;entryDy=0;" edge="1" parent="1" source="7twY9lvJ4eUQA6iJNznY-30" target="OdAngG6yBn14efRdHHWv-13">
          <mxGeometry relative="1" as="geometry">
            <Array as="points">
              <mxPoint x="240" y="340" />
              <mxPoint x="320" y="340" />
              <mxPoint x="320" y="460" />
            </Array>
          </mxGeometry>
        </mxCell>
        <mxCell id="OdAngG6yBn14efRdHHWv-31" style="edgeStyle=orthogonalEdgeStyle;rounded=0;orthogonalLoop=1;jettySize=auto;html=1;exitX=0.5;exitY=1;exitDx=0;exitDy=0;entryX=0.5;entryY=0;entryDx=0;entryDy=0;" edge="1" parent="1" source="7twY9lvJ4eUQA6iJNznY-30" target="OdAngG6yBn14efRdHHWv-18">
          <mxGeometry relative="1" as="geometry">
            <Array as="points">
              <mxPoint x="240" y="340" />
              <mxPoint x="320" y="340" />
              <mxPoint x="320" y="360" />
              <mxPoint x="480" y="360" />
            </Array>
          </mxGeometry>
        </mxCell>
        <mxCell id="7twY9lvJ4eUQA6iJNznY-30" value="" style="shape=orEllipse;perimeter=ellipsePerimeter;whiteSpace=wrap;html=1;backgroundOutline=1;" parent="1" vertex="1">
          <mxGeometry x="230" y="300" width="20" height="20" as="geometry" />
        </mxCell>
        <mxCell id="7twY9lvJ4eUQA6iJNznY-31" style="edgeStyle=none;rounded=0;orthogonalLoop=1;jettySize=auto;html=1;entryX=0;entryY=0.5;entryDx=0;entryDy=0;" parent="1" source="7twY9lvJ4eUQA6iJNznY-13" target="7twY9lvJ4eUQA6iJNznY-30" edge="1">
          <mxGeometry relative="1" as="geometry" />
        </mxCell>
        <mxCell id="7twY9lvJ4eUQA6iJNznY-33" value="" style="group" parent="1" vertex="1" connectable="0">
          <mxGeometry x="340" y="280" width="80" height="40" as="geometry" />
        </mxCell>
        <mxCell id="7twY9lvJ4eUQA6iJNznY-34" value="Plaintext" style="text;html=1;strokeColor=none;fillColor=none;align=center;verticalAlign=middle;whiteSpace=wrap;rounded=0;" parent="7twY9lvJ4eUQA6iJNznY-33" vertex="1">
          <mxGeometry width="80" height="20" as="geometry" />
        </mxCell>
        <mxCell id="7twY9lvJ4eUQA6iJNznY-35" value="" style="rounded=0;whiteSpace=wrap;html=1;" parent="7twY9lvJ4eUQA6iJNznY-33" vertex="1">
          <mxGeometry y="20" width="80" height="20" as="geometry" />
        </mxCell>
        <mxCell id="7twY9lvJ4eUQA6iJNznY-36" value="" style="endArrow=none;html=1;entryX=0.25;entryY=0;entryDx=0;entryDy=0;exitX=0.25;exitY=1;exitDx=0;exitDy=0;" parent="7twY9lvJ4eUQA6iJNznY-33" source="7twY9lvJ4eUQA6iJNznY-35" target="7twY9lvJ4eUQA6iJNznY-35" edge="1">
          <mxGeometry width="50" height="50" relative="1" as="geometry">
            <mxPoint x="20" y="40" as="sourcePoint" />
            <mxPoint x="70" y="20" as="targetPoint" />
          </mxGeometry>
        </mxCell>
        <mxCell id="7twY9lvJ4eUQA6iJNznY-37" value="" style="endArrow=none;html=1;entryX=0.5;entryY=0;entryDx=0;entryDy=0;exitX=0.5;exitY=1;exitDx=0;exitDy=0;" parent="7twY9lvJ4eUQA6iJNznY-33" source="7twY9lvJ4eUQA6iJNznY-35" target="7twY9lvJ4eUQA6iJNznY-35" edge="1">
          <mxGeometry width="50" height="50" relative="1" as="geometry">
            <mxPoint x="50" y="110" as="sourcePoint" />
            <mxPoint x="100" y="60" as="targetPoint" />
          </mxGeometry>
        </mxCell>
        <mxCell id="7twY9lvJ4eUQA6iJNznY-38" value="" style="endArrow=none;html=1;entryX=0.75;entryY=0;entryDx=0;entryDy=0;exitX=0.75;exitY=1;exitDx=0;exitDy=0;" parent="7twY9lvJ4eUQA6iJNznY-33" source="7twY9lvJ4eUQA6iJNznY-35" target="7twY9lvJ4eUQA6iJNznY-35" edge="1">
          <mxGeometry width="50" height="50" relative="1" as="geometry">
            <mxPoint x="30" y="110" as="sourcePoint" />
            <mxPoint x="100" y="60" as="targetPoint" />
          </mxGeometry>
        </mxCell>
        <mxCell id="7twY9lvJ4eUQA6iJNznY-39" style="edgeStyle=none;rounded=0;orthogonalLoop=1;jettySize=auto;html=1;entryX=0.5;entryY=0;entryDx=0;entryDy=0;" parent="1" source="7twY9lvJ4eUQA6iJNznY-40" target="7twY9lvJ4eUQA6iJNznY-45" edge="1">
          <mxGeometry relative="1" as="geometry" />
        </mxCell>
        <mxCell id="7twY9lvJ4eUQA6iJNznY-40" value="AES" style="rounded=0;whiteSpace=wrap;html=1;" parent="1" vertex="1">
          <mxGeometry x="420" y="220" width="120" height="40" as="geometry" />
        </mxCell>
        <mxCell id="7twY9lvJ4eUQA6iJNznY-41" value="" style="group" parent="1" vertex="1" connectable="0">
          <mxGeometry x="360" y="210" width="40" height="40" as="geometry" />
        </mxCell>
        <mxCell id="7twY9lvJ4eUQA6iJNznY-42" value="" style="pointerEvents=1;shadow=0;dashed=0;html=1;strokeColor=none;fillColor=#434445;labelPosition=center;verticalLabelPosition=bottom;verticalAlign=top;align=center;outlineConnect=0;shape=mxgraph.vvd.key;rotation=-90;" parent="7twY9lvJ4eUQA6iJNznY-41" vertex="1">
          <mxGeometry x="10" y="10" width="20" height="40" as="geometry" />
        </mxCell>
        <mxCell id="7twY9lvJ4eUQA6iJNznY-43" value="KEY1" style="text;html=1;strokeColor=none;fillColor=none;align=center;verticalAlign=middle;whiteSpace=wrap;rounded=0;" parent="7twY9lvJ4eUQA6iJNznY-41" vertex="1">
          <mxGeometry width="40" height="20" as="geometry" />
        </mxCell>
        <mxCell id="7twY9lvJ4eUQA6iJNznY-44" style="edgeStyle=none;rounded=0;orthogonalLoop=1;jettySize=auto;html=1;" parent="1" source="7twY9lvJ4eUQA6iJNznY-42" target="7twY9lvJ4eUQA6iJNznY-40" edge="1">
          <mxGeometry relative="1" as="geometry" />
        </mxCell>
        <mxCell id="OdAngG6yBn14efRdHHWv-32" style="edgeStyle=orthogonalEdgeStyle;rounded=0;orthogonalLoop=1;jettySize=auto;html=1;exitX=0.5;exitY=1;exitDx=0;exitDy=0;entryX=1;entryY=0.5;entryDx=0;entryDy=0;" edge="1" parent="1" source="7twY9lvJ4eUQA6iJNznY-45" target="OdAngG6yBn14efRdHHWv-30">
          <mxGeometry relative="1" as="geometry">
            <Array as="points">
              <mxPoint x="480" y="340" />
              <mxPoint x="560" y="340" />
              <mxPoint x="560" y="460" />
            </Array>
          </mxGeometry>
        </mxCell>
        <mxCell id="OdAngG6yBn14efRdHHWv-47" style="edgeStyle=orthogonalEdgeStyle;rounded=0;orthogonalLoop=1;jettySize=auto;html=1;exitX=0.5;exitY=1;exitDx=0;exitDy=0;entryX=0.5;entryY=0;entryDx=0;entryDy=0;" edge="1" parent="1" source="7twY9lvJ4eUQA6iJNznY-45" target="OdAngG6yBn14efRdHHWv-34">
          <mxGeometry relative="1" as="geometry">
            <Array as="points">
              <mxPoint x="480" y="340" />
              <mxPoint x="560" y="340" />
              <mxPoint x="560" y="360" />
              <mxPoint x="720" y="360" />
            </Array>
          </mxGeometry>
        </mxCell>
        <mxCell id="7twY9lvJ4eUQA6iJNznY-45" value="" style="shape=orEllipse;perimeter=ellipsePerimeter;whiteSpace=wrap;html=1;backgroundOutline=1;" parent="1" vertex="1">
          <mxGeometry x="470" y="300" width="20" height="20" as="geometry" />
        </mxCell>
        <mxCell id="7twY9lvJ4eUQA6iJNznY-46" style="edgeStyle=none;rounded=0;orthogonalLoop=1;jettySize=auto;html=1;entryX=0;entryY=0.5;entryDx=0;entryDy=0;" parent="1" source="7twY9lvJ4eUQA6iJNznY-35" target="7twY9lvJ4eUQA6iJNznY-45" edge="1">
          <mxGeometry relative="1" as="geometry" />
        </mxCell>
        <mxCell id="7twY9lvJ4eUQA6iJNznY-49" style="edgeStyle=orthogonalEdgeStyle;rounded=0;orthogonalLoop=1;jettySize=auto;html=1;exitX=0.5;exitY=1;exitDx=0;exitDy=0;entryX=0.5;entryY=0;entryDx=0;entryDy=0;" parent="1" source="7twY9lvJ4eUQA6iJNznY-30" target="7twY9lvJ4eUQA6iJNznY-40" edge="1">
          <mxGeometry relative="1" as="geometry">
            <Array as="points">
              <mxPoint x="240" y="340" />
              <mxPoint x="320" y="340" />
              <mxPoint x="320" y="200" />
              <mxPoint x="480" y="200" />
            </Array>
          </mxGeometry>
        </mxCell>
        <mxCell id="7twY9lvJ4eUQA6iJNznY-51" value="" style="group" parent="1" vertex="1" connectable="0">
          <mxGeometry x="580" y="279.97" width="80" height="40" as="geometry" />
        </mxCell>
        <mxCell id="7twY9lvJ4eUQA6iJNznY-52" value="Plaintext" style="text;html=1;strokeColor=none;fillColor=none;align=center;verticalAlign=middle;whiteSpace=wrap;rounded=0;" parent="7twY9lvJ4eUQA6iJNznY-51" vertex="1">
          <mxGeometry width="80" height="20" as="geometry" />
        </mxCell>
        <mxCell id="7twY9lvJ4eUQA6iJNznY-53" value="" style="rounded=0;whiteSpace=wrap;html=1;" parent="7twY9lvJ4eUQA6iJNznY-51" vertex="1">
          <mxGeometry y="20" width="80" height="20" as="geometry" />
        </mxCell>
        <mxCell id="7twY9lvJ4eUQA6iJNznY-54" value="" style="endArrow=none;html=1;entryX=0.25;entryY=0;entryDx=0;entryDy=0;exitX=0.25;exitY=1;exitDx=0;exitDy=0;" parent="7twY9lvJ4eUQA6iJNznY-51" source="7twY9lvJ4eUQA6iJNznY-53" target="7twY9lvJ4eUQA6iJNznY-53" edge="1">
          <mxGeometry width="50" height="50" relative="1" as="geometry">
            <mxPoint x="20" y="40" as="sourcePoint" />
            <mxPoint x="70" y="20" as="targetPoint" />
          </mxGeometry>
        </mxCell>
        <mxCell id="7twY9lvJ4eUQA6iJNznY-55" value="" style="endArrow=none;html=1;entryX=0.5;entryY=0;entryDx=0;entryDy=0;exitX=0.5;exitY=1;exitDx=0;exitDy=0;" parent="7twY9lvJ4eUQA6iJNznY-51" source="7twY9lvJ4eUQA6iJNznY-53" target="7twY9lvJ4eUQA6iJNznY-53" edge="1">
          <mxGeometry width="50" height="50" relative="1" as="geometry">
            <mxPoint x="50" y="110" as="sourcePoint" />
            <mxPoint x="100" y="60" as="targetPoint" />
          </mxGeometry>
        </mxCell>
        <mxCell id="7twY9lvJ4eUQA6iJNznY-56" value="" style="endArrow=none;html=1;entryX=0.75;entryY=0;entryDx=0;entryDy=0;exitX=0.75;exitY=1;exitDx=0;exitDy=0;" parent="7twY9lvJ4eUQA6iJNznY-51" source="7twY9lvJ4eUQA6iJNznY-53" target="7twY9lvJ4eUQA6iJNznY-53" edge="1">
          <mxGeometry width="50" height="50" relative="1" as="geometry">
            <mxPoint x="30" y="110" as="sourcePoint" />
            <mxPoint x="100" y="60" as="targetPoint" />
          </mxGeometry>
        </mxCell>
        <mxCell id="7twY9lvJ4eUQA6iJNznY-57" style="edgeStyle=none;rounded=0;orthogonalLoop=1;jettySize=auto;html=1;entryX=0.5;entryY=0;entryDx=0;entryDy=0;" parent="1" source="7twY9lvJ4eUQA6iJNznY-58" target="7twY9lvJ4eUQA6iJNznY-63" edge="1">
          <mxGeometry relative="1" as="geometry" />
        </mxCell>
        <mxCell id="7twY9lvJ4eUQA6iJNznY-58" value="AES" style="rounded=0;whiteSpace=wrap;html=1;" parent="1" vertex="1">
          <mxGeometry x="660" y="219.97" width="120" height="40" as="geometry" />
        </mxCell>
        <mxCell id="7twY9lvJ4eUQA6iJNznY-59" value="" style="group" parent="1" vertex="1" connectable="0">
          <mxGeometry x="600" y="209.97" width="40" height="40" as="geometry" />
        </mxCell>
        <mxCell id="7twY9lvJ4eUQA6iJNznY-60" value="" style="pointerEvents=1;shadow=0;dashed=0;html=1;strokeColor=none;fillColor=#434445;labelPosition=center;verticalLabelPosition=bottom;verticalAlign=top;align=center;outlineConnect=0;shape=mxgraph.vvd.key;rotation=-90;" parent="7twY9lvJ4eUQA6iJNznY-59" vertex="1">
          <mxGeometry x="10" y="10" width="20" height="40" as="geometry" />
        </mxCell>
        <mxCell id="7twY9lvJ4eUQA6iJNznY-61" value="KEY1" style="text;html=1;strokeColor=none;fillColor=none;align=center;verticalAlign=middle;whiteSpace=wrap;rounded=0;" parent="7twY9lvJ4eUQA6iJNznY-59" vertex="1">
          <mxGeometry width="40" height="20" as="geometry" />
        </mxCell>
        <mxCell id="7twY9lvJ4eUQA6iJNznY-62" style="edgeStyle=none;rounded=0;orthogonalLoop=1;jettySize=auto;html=1;" parent="1" source="7twY9lvJ4eUQA6iJNznY-60" target="7twY9lvJ4eUQA6iJNznY-58" edge="1">
          <mxGeometry relative="1" as="geometry" />
        </mxCell>
        <mxCell id="OdAngG6yBn14efRdHHWv-48" style="edgeStyle=orthogonalEdgeStyle;rounded=0;orthogonalLoop=1;jettySize=auto;html=1;exitX=0.5;exitY=1;exitDx=0;exitDy=0;entryX=1;entryY=0.5;entryDx=0;entryDy=0;" edge="1" parent="1" source="7twY9lvJ4eUQA6iJNznY-63" target="OdAngG6yBn14efRdHHWv-46">
          <mxGeometry relative="1" as="geometry">
            <Array as="points">
              <mxPoint x="720" y="340" />
              <mxPoint x="800" y="340" />
              <mxPoint x="800" y="460" />
            </Array>
          </mxGeometry>
        </mxCell>
        <mxCell id="7twY9lvJ4eUQA6iJNznY-63" value="" style="shape=orEllipse;perimeter=ellipsePerimeter;whiteSpace=wrap;html=1;backgroundOutline=1;" parent="1" vertex="1">
          <mxGeometry x="710" y="299.97" width="20" height="20" as="geometry" />
        </mxCell>
        <mxCell id="7twY9lvJ4eUQA6iJNznY-64" style="edgeStyle=none;rounded=0;orthogonalLoop=1;jettySize=auto;html=1;entryX=0;entryY=0.5;entryDx=0;entryDy=0;" parent="1" source="7twY9lvJ4eUQA6iJNznY-53" target="7twY9lvJ4eUQA6iJNznY-63" edge="1">
          <mxGeometry relative="1" as="geometry" />
        </mxCell>
        <mxCell id="7twY9lvJ4eUQA6iJNznY-65" style="edgeStyle=orthogonalEdgeStyle;rounded=0;orthogonalLoop=1;jettySize=auto;html=1;entryX=0.5;entryY=0;entryDx=0;entryDy=0;exitX=0.5;exitY=1;exitDx=0;exitDy=0;" parent="1" source="7twY9lvJ4eUQA6iJNznY-45" target="7twY9lvJ4eUQA6iJNznY-58" edge="1">
          <mxGeometry relative="1" as="geometry">
            <mxPoint x="480" y="330" as="sourcePoint" />
            <Array as="points">
              <mxPoint x="480" y="340" />
              <mxPoint x="560" y="340" />
              <mxPoint x="560" y="200" />
              <mxPoint x="720" y="200" />
            </Array>
          </mxGeometry>
        </mxCell>
        <mxCell id="OdAngG6yBn14efRdHHWv-15" style="edgeStyle=orthogonalEdgeStyle;rounded=0;orthogonalLoop=1;jettySize=auto;html=1;exitX=0.5;exitY=1;exitDx=0;exitDy=0;entryX=0.5;entryY=0;entryDx=0;entryDy=0;" edge="1" parent="1" source="7twY9lvJ4eUQA6iJNznY-66" target="OdAngG6yBn14efRdHHWv-13">
          <mxGeometry relative="1" as="geometry" />
        </mxCell>
        <mxCell id="7twY9lvJ4eUQA6iJNznY-66" value="AES" style="rounded=0;whiteSpace=wrap;html=1;" parent="1" vertex="1">
          <mxGeometry x="180" y="380" width="120" height="40" as="geometry" />
        </mxCell>
        <mxCell id="7twY9lvJ4eUQA6iJNznY-67" style="edgeStyle=orthogonalEdgeStyle;rounded=0;orthogonalLoop=1;jettySize=auto;html=1;exitX=0.5;exitY=1;exitDx=0;exitDy=0;entryX=0.5;entryY=0;entryDx=0;entryDy=0;" parent="1" source="7twY9lvJ4eUQA6iJNznY-1" target="7twY9lvJ4eUQA6iJNznY-66" edge="1">
          <mxGeometry relative="1" as="geometry">
            <Array as="points">
              <mxPoint x="80" y="360" />
              <mxPoint x="240" y="360" />
            </Array>
          </mxGeometry>
        </mxCell>
        <mxCell id="OdAngG6yBn14efRdHHWv-1" value="" style="group" vertex="1" connectable="0" parent="1">
          <mxGeometry x="120" y="370" width="40" height="40" as="geometry" />
        </mxCell>
        <mxCell id="OdAngG6yBn14efRdHHWv-2" value="" style="pointerEvents=1;shadow=0;dashed=0;html=1;strokeColor=none;fillColor=#434445;labelPosition=center;verticalLabelPosition=bottom;verticalAlign=top;align=center;outlineConnect=0;shape=mxgraph.vvd.key;rotation=-90;" vertex="1" parent="OdAngG6yBn14efRdHHWv-1">
          <mxGeometry x="10" y="10" width="20" height="40" as="geometry" />
        </mxCell>
        <mxCell id="OdAngG6yBn14efRdHHWv-3" value="KEY2" style="text;html=1;strokeColor=none;fillColor=none;align=center;verticalAlign=middle;whiteSpace=wrap;rounded=0;" vertex="1" parent="OdAngG6yBn14efRdHHWv-1">
          <mxGeometry width="40" height="20" as="geometry" />
        </mxCell>
        <mxCell id="OdAngG6yBn14efRdHHWv-4" style="edgeStyle=none;rounded=0;orthogonalLoop=1;jettySize=auto;html=1;entryX=0;entryY=0.5;entryDx=0;entryDy=0;" edge="1" parent="1" source="OdAngG6yBn14efRdHHWv-2" target="7twY9lvJ4eUQA6iJNznY-66">
          <mxGeometry relative="1" as="geometry">
            <mxPoint x="190" y="250" as="targetPoint" />
          </mxGeometry>
        </mxCell>
        <mxCell id="OdAngG6yBn14efRdHHWv-12" value="" style="group" vertex="1" connectable="0" parent="1">
          <mxGeometry x="200" y="500" width="80" height="40" as="geometry" />
        </mxCell>
        <mxCell id="OdAngG6yBn14efRdHHWv-6" value="Ciphertext" style="text;html=1;strokeColor=none;fillColor=none;align=center;verticalAlign=middle;whiteSpace=wrap;rounded=0;" vertex="1" parent="OdAngG6yBn14efRdHHWv-12">
          <mxGeometry y="20" width="80" height="20" as="geometry" />
        </mxCell>
        <mxCell id="OdAngG6yBn14efRdHHWv-7" value="" style="rounded=0;whiteSpace=wrap;html=1;" vertex="1" parent="OdAngG6yBn14efRdHHWv-12">
          <mxGeometry width="80" height="20" as="geometry" />
        </mxCell>
        <mxCell id="OdAngG6yBn14efRdHHWv-8" value="" style="endArrow=none;html=1;entryX=0.25;entryY=0;entryDx=0;entryDy=0;exitX=0.25;exitY=1;exitDx=0;exitDy=0;" edge="1" parent="OdAngG6yBn14efRdHHWv-12" source="OdAngG6yBn14efRdHHWv-7" target="OdAngG6yBn14efRdHHWv-7">
          <mxGeometry width="50" height="50" relative="1" as="geometry">
            <mxPoint x="20" y="20" as="sourcePoint" />
            <mxPoint x="70" as="targetPoint" />
          </mxGeometry>
        </mxCell>
        <mxCell id="OdAngG6yBn14efRdHHWv-9" value="" style="endArrow=none;html=1;entryX=0.5;entryY=0;entryDx=0;entryDy=0;exitX=0.5;exitY=1;exitDx=0;exitDy=0;" edge="1" parent="OdAngG6yBn14efRdHHWv-12" source="OdAngG6yBn14efRdHHWv-7" target="OdAngG6yBn14efRdHHWv-7">
          <mxGeometry width="50" height="50" relative="1" as="geometry">
            <mxPoint x="50" y="90" as="sourcePoint" />
            <mxPoint x="100" y="40" as="targetPoint" />
          </mxGeometry>
        </mxCell>
        <mxCell id="OdAngG6yBn14efRdHHWv-10" value="" style="endArrow=none;html=1;entryX=0.75;entryY=0;entryDx=0;entryDy=0;exitX=0.75;exitY=1;exitDx=0;exitDy=0;" edge="1" parent="OdAngG6yBn14efRdHHWv-12" source="OdAngG6yBn14efRdHHWv-7" target="OdAngG6yBn14efRdHHWv-7">
          <mxGeometry width="50" height="50" relative="1" as="geometry">
            <mxPoint x="30" y="90" as="sourcePoint" />
            <mxPoint x="100" y="40" as="targetPoint" />
          </mxGeometry>
        </mxCell>
        <mxCell id="OdAngG6yBn14efRdHHWv-14" style="edgeStyle=orthogonalEdgeStyle;rounded=0;orthogonalLoop=1;jettySize=auto;html=1;exitX=0.5;exitY=1;exitDx=0;exitDy=0;entryX=0.5;entryY=0;entryDx=0;entryDy=0;" edge="1" parent="1" source="OdAngG6yBn14efRdHHWv-13" target="OdAngG6yBn14efRdHHWv-7">
          <mxGeometry relative="1" as="geometry" />
        </mxCell>
        <mxCell id="OdAngG6yBn14efRdHHWv-13" value="" style="shape=orEllipse;perimeter=ellipsePerimeter;whiteSpace=wrap;html=1;backgroundOutline=1;" vertex="1" parent="1">
          <mxGeometry x="230" y="450" width="20" height="20" as="geometry" />
        </mxCell>
        <mxCell id="OdAngG6yBn14efRdHHWv-17" style="edgeStyle=orthogonalEdgeStyle;rounded=0;orthogonalLoop=1;jettySize=auto;html=1;exitX=0.5;exitY=1;exitDx=0;exitDy=0;entryX=0.5;entryY=0;entryDx=0;entryDy=0;" edge="1" parent="1" source="OdAngG6yBn14efRdHHWv-18" target="OdAngG6yBn14efRdHHWv-30">
          <mxGeometry relative="1" as="geometry" />
        </mxCell>
        <mxCell id="OdAngG6yBn14efRdHHWv-18" value="AES" style="rounded=0;whiteSpace=wrap;html=1;" vertex="1" parent="1">
          <mxGeometry x="420" y="380" width="120" height="40" as="geometry" />
        </mxCell>
        <mxCell id="OdAngG6yBn14efRdHHWv-19" value="" style="group" vertex="1" connectable="0" parent="1">
          <mxGeometry x="360" y="370" width="40" height="40" as="geometry" />
        </mxCell>
        <mxCell id="OdAngG6yBn14efRdHHWv-20" value="" style="pointerEvents=1;shadow=0;dashed=0;html=1;strokeColor=none;fillColor=#434445;labelPosition=center;verticalLabelPosition=bottom;verticalAlign=top;align=center;outlineConnect=0;shape=mxgraph.vvd.key;rotation=-90;" vertex="1" parent="OdAngG6yBn14efRdHHWv-19">
          <mxGeometry x="10" y="10" width="20" height="40" as="geometry" />
        </mxCell>
        <mxCell id="OdAngG6yBn14efRdHHWv-21" value="KEY2" style="text;html=1;strokeColor=none;fillColor=none;align=center;verticalAlign=middle;whiteSpace=wrap;rounded=0;" vertex="1" parent="OdAngG6yBn14efRdHHWv-19">
          <mxGeometry width="40" height="20" as="geometry" />
        </mxCell>
        <mxCell id="OdAngG6yBn14efRdHHWv-22" style="edgeStyle=none;rounded=0;orthogonalLoop=1;jettySize=auto;html=1;entryX=0;entryY=0.5;entryDx=0;entryDy=0;" edge="1" parent="1" source="OdAngG6yBn14efRdHHWv-20" target="OdAngG6yBn14efRdHHWv-18">
          <mxGeometry relative="1" as="geometry">
            <mxPoint x="430" y="250" as="targetPoint" />
          </mxGeometry>
        </mxCell>
        <mxCell id="OdAngG6yBn14efRdHHWv-23" value="" style="group" vertex="1" connectable="0" parent="1">
          <mxGeometry x="440" y="500" width="80" height="40" as="geometry" />
        </mxCell>
        <mxCell id="OdAngG6yBn14efRdHHWv-24" value="Ciphertext" style="text;html=1;strokeColor=none;fillColor=none;align=center;verticalAlign=middle;whiteSpace=wrap;rounded=0;" vertex="1" parent="OdAngG6yBn14efRdHHWv-23">
          <mxGeometry y="20" width="80" height="20" as="geometry" />
        </mxCell>
        <mxCell id="OdAngG6yBn14efRdHHWv-25" value="" style="rounded=0;whiteSpace=wrap;html=1;" vertex="1" parent="OdAngG6yBn14efRdHHWv-23">
          <mxGeometry width="80" height="20" as="geometry" />
        </mxCell>
        <mxCell id="OdAngG6yBn14efRdHHWv-26" value="" style="endArrow=none;html=1;entryX=0.25;entryY=0;entryDx=0;entryDy=0;exitX=0.25;exitY=1;exitDx=0;exitDy=0;" edge="1" parent="OdAngG6yBn14efRdHHWv-23" source="OdAngG6yBn14efRdHHWv-25" target="OdAngG6yBn14efRdHHWv-25">
          <mxGeometry width="50" height="50" relative="1" as="geometry">
            <mxPoint x="20" y="20" as="sourcePoint" />
            <mxPoint x="70" as="targetPoint" />
          </mxGeometry>
        </mxCell>
        <mxCell id="OdAngG6yBn14efRdHHWv-27" value="" style="endArrow=none;html=1;entryX=0.5;entryY=0;entryDx=0;entryDy=0;exitX=0.5;exitY=1;exitDx=0;exitDy=0;" edge="1" parent="OdAngG6yBn14efRdHHWv-23" source="OdAngG6yBn14efRdHHWv-25" target="OdAngG6yBn14efRdHHWv-25">
          <mxGeometry width="50" height="50" relative="1" as="geometry">
            <mxPoint x="50" y="90" as="sourcePoint" />
            <mxPoint x="100" y="40" as="targetPoint" />
          </mxGeometry>
        </mxCell>
        <mxCell id="OdAngG6yBn14efRdHHWv-28" value="" style="endArrow=none;html=1;entryX=0.75;entryY=0;entryDx=0;entryDy=0;exitX=0.75;exitY=1;exitDx=0;exitDy=0;" edge="1" parent="OdAngG6yBn14efRdHHWv-23" source="OdAngG6yBn14efRdHHWv-25" target="OdAngG6yBn14efRdHHWv-25">
          <mxGeometry width="50" height="50" relative="1" as="geometry">
            <mxPoint x="30" y="90" as="sourcePoint" />
            <mxPoint x="100" y="40" as="targetPoint" />
          </mxGeometry>
        </mxCell>
        <mxCell id="OdAngG6yBn14efRdHHWv-29" style="edgeStyle=orthogonalEdgeStyle;rounded=0;orthogonalLoop=1;jettySize=auto;html=1;exitX=0.5;exitY=1;exitDx=0;exitDy=0;entryX=0.5;entryY=0;entryDx=0;entryDy=0;" edge="1" parent="1" source="OdAngG6yBn14efRdHHWv-30" target="OdAngG6yBn14efRdHHWv-25">
          <mxGeometry relative="1" as="geometry" />
        </mxCell>
        <mxCell id="OdAngG6yBn14efRdHHWv-30" value="" style="shape=orEllipse;perimeter=ellipsePerimeter;whiteSpace=wrap;html=1;backgroundOutline=1;" vertex="1" parent="1">
          <mxGeometry x="470" y="450" width="20" height="20" as="geometry" />
        </mxCell>
        <mxCell id="OdAngG6yBn14efRdHHWv-33" style="edgeStyle=orthogonalEdgeStyle;rounded=0;orthogonalLoop=1;jettySize=auto;html=1;exitX=0.5;exitY=1;exitDx=0;exitDy=0;entryX=0.5;entryY=0;entryDx=0;entryDy=0;" edge="1" parent="1" source="OdAngG6yBn14efRdHHWv-34" target="OdAngG6yBn14efRdHHWv-46">
          <mxGeometry relative="1" as="geometry" />
        </mxCell>
        <mxCell id="OdAngG6yBn14efRdHHWv-34" value="AES" style="rounded=0;whiteSpace=wrap;html=1;" vertex="1" parent="1">
          <mxGeometry x="660" y="380" width="120" height="40" as="geometry" />
        </mxCell>
        <mxCell id="OdAngG6yBn14efRdHHWv-35" value="" style="group" vertex="1" connectable="0" parent="1">
          <mxGeometry x="600" y="370" width="40" height="40" as="geometry" />
        </mxCell>
        <mxCell id="OdAngG6yBn14efRdHHWv-36" value="" style="pointerEvents=1;shadow=0;dashed=0;html=1;strokeColor=none;fillColor=#434445;labelPosition=center;verticalLabelPosition=bottom;verticalAlign=top;align=center;outlineConnect=0;shape=mxgraph.vvd.key;rotation=-90;" vertex="1" parent="OdAngG6yBn14efRdHHWv-35">
          <mxGeometry x="10" y="10" width="20" height="40" as="geometry" />
        </mxCell>
        <mxCell id="OdAngG6yBn14efRdHHWv-37" value="KEY2" style="text;html=1;strokeColor=none;fillColor=none;align=center;verticalAlign=middle;whiteSpace=wrap;rounded=0;" vertex="1" parent="OdAngG6yBn14efRdHHWv-35">
          <mxGeometry width="40" height="20" as="geometry" />
        </mxCell>
        <mxCell id="OdAngG6yBn14efRdHHWv-38" style="edgeStyle=none;rounded=0;orthogonalLoop=1;jettySize=auto;html=1;entryX=0;entryY=0.5;entryDx=0;entryDy=0;" edge="1" parent="1" source="OdAngG6yBn14efRdHHWv-36" target="OdAngG6yBn14efRdHHWv-34">
          <mxGeometry relative="1" as="geometry">
            <mxPoint x="670" y="250" as="targetPoint" />
          </mxGeometry>
        </mxCell>
        <mxCell id="OdAngG6yBn14efRdHHWv-39" value="" style="group" vertex="1" connectable="0" parent="1">
          <mxGeometry x="680" y="500" width="80" height="40" as="geometry" />
        </mxCell>
        <mxCell id="OdAngG6yBn14efRdHHWv-40" value="Ciphertext" style="text;html=1;strokeColor=none;fillColor=none;align=center;verticalAlign=middle;whiteSpace=wrap;rounded=0;" vertex="1" parent="OdAngG6yBn14efRdHHWv-39">
          <mxGeometry y="20" width="80" height="20" as="geometry" />
        </mxCell>
        <mxCell id="OdAngG6yBn14efRdHHWv-41" value="" style="rounded=0;whiteSpace=wrap;html=1;" vertex="1" parent="OdAngG6yBn14efRdHHWv-39">
          <mxGeometry width="80" height="20" as="geometry" />
        </mxCell>
        <mxCell id="OdAngG6yBn14efRdHHWv-42" value="" style="endArrow=none;html=1;entryX=0.25;entryY=0;entryDx=0;entryDy=0;exitX=0.25;exitY=1;exitDx=0;exitDy=0;" edge="1" parent="OdAngG6yBn14efRdHHWv-39" source="OdAngG6yBn14efRdHHWv-41" target="OdAngG6yBn14efRdHHWv-41">
          <mxGeometry width="50" height="50" relative="1" as="geometry">
            <mxPoint x="20" y="20" as="sourcePoint" />
            <mxPoint x="70" as="targetPoint" />
          </mxGeometry>
        </mxCell>
        <mxCell id="OdAngG6yBn14efRdHHWv-43" value="" style="endArrow=none;html=1;entryX=0.5;entryY=0;entryDx=0;entryDy=0;exitX=0.5;exitY=1;exitDx=0;exitDy=0;" edge="1" parent="OdAngG6yBn14efRdHHWv-39" source="OdAngG6yBn14efRdHHWv-41" target="OdAngG6yBn14efRdHHWv-41">
          <mxGeometry width="50" height="50" relative="1" as="geometry">
            <mxPoint x="50" y="90" as="sourcePoint" />
            <mxPoint x="100" y="40" as="targetPoint" />
          </mxGeometry>
        </mxCell>
        <mxCell id="OdAngG6yBn14efRdHHWv-44" value="" style="endArrow=none;html=1;entryX=0.75;entryY=0;entryDx=0;entryDy=0;exitX=0.75;exitY=1;exitDx=0;exitDy=0;" edge="1" parent="OdAngG6yBn14efRdHHWv-39" source="OdAngG6yBn14efRdHHWv-41" target="OdAngG6yBn14efRdHHWv-41">
          <mxGeometry width="50" height="50" relative="1" as="geometry">
            <mxPoint x="30" y="90" as="sourcePoint" />
            <mxPoint x="100" y="40" as="targetPoint" />
          </mxGeometry>
        </mxCell>
        <mxCell id="OdAngG6yBn14efRdHHWv-45" style="edgeStyle=orthogonalEdgeStyle;rounded=0;orthogonalLoop=1;jettySize=auto;html=1;exitX=0.5;exitY=1;exitDx=0;exitDy=0;entryX=0.5;entryY=0;entryDx=0;entryDy=0;" edge="1" parent="1" source="OdAngG6yBn14efRdHHWv-46" target="OdAngG6yBn14efRdHHWv-41">
          <mxGeometry relative="1" as="geometry" />
        </mxCell>
        <mxCell id="OdAngG6yBn14efRdHHWv-46" value="" style="shape=orEllipse;perimeter=ellipsePerimeter;whiteSpace=wrap;html=1;backgroundOutline=1;" vertex="1" parent="1">
          <mxGeometry x="710" y="450" width="20" height="20" as="geometry" />
        </mxCell>
      </root>
    </mxGraphModel>
  </diagram>
</mxfile>
